{"title":"The Big Bang Theory S06E1-17  HDTV XviD [eng/rus subs]","uid":8177686,"size":3054220619,"categoryP":"video","categoryS":"tv_shows","magnet":"?xt=urn:btih:f39fc7b9141258fdcbbb46e8da82431ce7009025&amp;dn=The+Big+Bang+Theory+S06E1-17++HDTV+XviD+%5Beng%2Frus+subs%5D&amp;tr=udp%3A%2F%2Ftracker.openbittorrent.com%3A80&amp;tr=udp%3A%2F%2Fopen.demonii.com%3A1337&amp;tr=udp%3A%2F%2Ftracker.coppersurfer.tk%3A6969&amp;tr=udp%3A%2F%2Fexodus.desync.com%3A6969","seeders":2,"leechers":0,"uploader":"yfjfrj","files":51,"time":1361561747,"description":"MediaInfo:\nGeneral\nComplete name                            : D:The big bang theory_subsThe.Big.Bang.Theory.S06E01.avi\nFormat                                   : AVI\nFormat/Info                              : Audio Video Interleave\nFile size                                : 181 MiB\nDuration                                 : 21mn 15s\nOverall bit rate                         : 1 189 Kbps\nWriting application                      : VirtualDubMod 1.5.10.3 | www.virtualdub-fr.org || (build 2550/release)\nWriting library                          : VirtualDubMod build 2550/release\n\nVideo\nID                                       : 0\nFormat                                   : MPEG-4 Visual\nFormat profile                           : Advanced Simple@L5\nFormat settings, BVOP                    : 1\nFormat settings, QPel                    : No\nFormat settings, GMC                     : No warppoints\nFormat settings, Matrix                  : Default (H.263)\nCodec ID                                 : XVID\nCodec ID/Hint                            : XviD\nDuration                                 : 21mn 15s\nBit rate                                 : 1 052 Kbps\nWidth                                    : 656 pixels\nHeight                                   : 368 pixels\nDisplay aspect ratio                     : 16:9\nFrame rate                               : 23.976 fps\nColor space                              : YUV\nChroma subsampling                       : 4:2:0\nBit depth                                : 8 bits\nScan type                                : Progressive\nCompression mode                         : Lossy\nBits/(Pixel*Frame)                       : 0.182\nStream size                              : 160 MiB (88%)\nWriting library                          : XviD 1.2.1 (UTC 2008-12-04)\n\nAudio\nID                                       : 1\nFormat                                   : MPEG Audio\nFormat version                           : Version 1\nFormat profile                           : Layer 3\nMode                                     : Joint stereo\nMode extension                           : MS Stereo\nCodec ID                                 : 55\nCodec ID/Hint                            : MP3\nDuration                                 : 21mn 15s\nBit rate mode                            : Constant\nBit rate                                 : 128 Kbps\nChannel(s)                               : 2 channels\nSampling rate                            : 48.0 KHz\nCompression mode                         : Lossy\nStream size                              : 19.5 MiB (11%)\nAlignment                                : Aligned on interleaves\nInterleave, duration                     : 42 ms (1.00 video frame)\nInterleave, preload duration             : 504 ms\nWriting library                          : LAME3.98r\nEncoding settings                        : -m j -V 4 -q 0 -lowpass 17 -b 128\n\n","torrent":{"xt":"urn:btih:f39fc7b9141258fdcbbb46e8da82431ce7009025","amp;dn":"The+Big+Bang+Theory+S06E1-17++HDTV+XviD+%5Beng%2Frus+subs%5D","amp;tr":["udp%3A%2F%2Ftracker.openbittorrent.com%3A80","udp%3A%2F%2Fopen.demonii.com%3A1337","udp%3A%2F%2Ftracker.coppersurfer.tk%3A6969","udp%3A%2F%2Fexodus.desync.com%3A6969"],"infoHash":"f39fc7b9141258fdcbbb46e8da82431ce7009025","infoHashBuffer":{"type":"Buffer","data":[243,159,199,185,20,18,88,253,203,187,70,232,218,130,67,28,231,0,144,37]},"announce":[],"urlList":[]}}